<svg width="16" height="14" viewBox="0 0 16 14" fill="none" xmlns="http://www.w3.org/2000/svg">
<path d="M7.77474 5.44434C6.51007 5.44434 5.44141 6.513 5.44141 7.77767C5.44141 9.04234 6.51007 10.111 7.77474 10.111C9.03941 10.111 10.1081 9.04234 10.1081 7.77767C10.1081 6.513 9.03941 5.44434 7.77474 5.44434Z" fill="white"/>
<path d="M14 2.33333H11.9887L9.88322 0.22789C9.81112 0.155523 9.72541 0.0981327 9.63104 0.059022C9.53667 0.0199112 9.43549 -0.000147349 9.33333 8.14857e-07H6.22222C6.12007 -0.000147349 6.01889 0.0199112 5.92452 0.059022C5.83014 0.0981327 5.74444 0.155523 5.67233 0.22789L3.56689 2.33333H1.55556C0.697667 2.33333 0 3.031 0 3.88889V12.4444C0 13.3023 0.697667 14 1.55556 14H14C14.8579 14 15.5556 13.3023 15.5556 12.4444V3.88889C15.5556 3.031 14.8579 2.33333 14 2.33333ZM7.77778 11.6667C5.67 11.6667 3.88889 9.88556 3.88889 7.77778C3.88889 5.67 5.67 3.88889 7.77778 3.88889C9.88556 3.88889 11.6667 5.67 11.6667 7.77778C11.6667 9.88556 9.88556 11.6667 7.77778 11.6667Z" fill="white"/>
</svg>
