<svg width="18" height="19" viewBox="0 0 18 19" fill="none" xmlns="http://www.w3.org/2000/svg">
<path d="M16.2104 2.96289H4.3506C4.10228 2.96289 3.86413 3.05654 3.68854 3.22324C3.51295 3.38994 3.41431 3.61603 3.41431 3.85178V18.074C3.41431 18.3097 3.51295 18.5358 3.68854 18.7025C3.86413 18.8692 4.10228 18.9629 4.3506 18.9629H16.2104C16.4587 18.9629 16.6968 18.8692 16.8724 18.7025C17.048 18.5358 17.1467 18.3097 17.1467 18.074V3.85178C17.1467 3.61603 17.048 3.38994 16.8724 3.22324C16.6968 3.05654 16.4587 2.96289 16.2104 2.96289ZM15.8983 17.7777H4.6627V4.14808H15.8983V17.7777Z" fill="#4A79E4"/>
<path d="M14.0258 0.888889C14.0258 0.653141 13.9272 0.427049 13.7516 0.26035C13.576 0.0936506 13.3378 0 13.0895 0H1.22975C0.981432 0 0.743281 0.0936506 0.567692 0.26035C0.392102 0.427049 0.293457 0.653141 0.293457 0.888889V15.1111C0.293457 15.3469 0.392102 15.573 0.567692 15.7396C0.743281 15.9063 0.981432 16 1.22975 16H1.54185V1.18519H14.0258V0.888889Z" fill="#4A79E4"/>
</svg>
